<svg xmlns="http://www.w3.org/2000/svg" xmlns:xlink="http://www.w3.org/1999/xlink" version="1.1" id="layer" x="0px" y="0px" viewBox="0 0 652 652" style="enable-background:new 0 0 652 652;" xml:space="preserve" transform="matrix(1, 0, 0, 1, 0, 0)">
<style type="text/css">
	.st0{fill:#ffffff;}
</style>
<path class="st0" d="M523.5,347c-0.7-6.9-6.6-12.2-13.5-12.2h-18.5v68.4h-32.6V238.9h69.7c15,0,27.2,12.1,27.3,27.2c0,0,0,0,0,0.1  v30.8c0,10.3-5.8,19.6-14.9,24.3c8.9,4.5,14.6,13.6,14.9,23.6v58.7h-32.4V347 M523.5,296.5v-19.3c-0.7-7-6.6-12.3-13.6-12.3h-18.4  v43.8h19.8C517.7,308.1,522.9,303,523.5,296.5z M209.9,178.8h32.7v30h-32.7V178.8z M274.5,178.8H307v30h-32.5V178.8z" fill="#ffffff"/>
<path class="st0" d="M20.8,178.8h161.9v30H53.5v224.6h534.7V208.8H334.4v-30h286.3l0.1,284.6h-600V178.8" fill="#ffffff"/>
<path class="st0" d="M136.4,377.2c7.3,0,13.2-5.7,13.6-13V278c-0.3-7.3-6.3-13-13.6-13h-18.3v112.2L136.4,377.2 M85.4,238.9h70  c14.6,0,26.6,11.5,27.2,26.1V376c-0.1,15-12.2,27.1-27.2,27.2h-70V238.9z M209.8,377.7V238.9h32.6v124.7c0,7.5,6.1,13.6,13.6,13.6h0  h4.7c7.5,0.2,13.8-5.8,14-13.3c0-0.1,0-0.2,0-0.4V238.9h32.6v138.8c0,15-12.1,27.2-27.2,27.3c0,0,0,0-0.1,0h-42.9  c-15,0.1-27.3-12-27.4-27C209.8,377.9,209.8,377.8,209.8,377.7 M399,347c-0.7-6.9-6.6-12.2-13.5-12.2H367v68.4h-32.6V238.9h70.2  c15,0,27.2,12.1,27.3,27.2c0,0,0,0,0,0.1v30.8c0,10.3-5.8,19.6-14.9,24.3c8.9,4.6,14.6,13.6,14.9,23.6v58.4H399V347 M399,296.5  v-19.3c-0.7-7-6.6-12.3-13.6-12.3H367v43.8h19.9C393.3,308.1,398.4,302.9,399,296.5z" fill="#ffffff"/>
</svg>